<?xml version="1.0" encoding="UTF-8"?><svg xmlns="http://www.w3.org/2000/svg" viewBox="0 0 479.97 337.09"><defs><style>.cls-1{fill:#f4f3ea;}.cls-2{fill:#008382;stroke:#008382;stroke-miterlimit:10;stroke-width:2.27px;}</style></defs><g id="Layer_2"><path class="cls-2" d="M6.48,274.65c-12.55-29.94-4.55-65.97,40.95-88.72,22.15-11.07,47.77-11.37,72.79-4.55,36.08,9.84,38.67,13.65,54.6,11.37,26.48-3.78,47.67-20.23,70.18-77.37,2.93-7.43,6.76-14.52,11.76-20.75,14.9-18.58,33.59-24.72,52.28-24.72s32.6,8.53,36.4,11.37c27.3,20.47,44.46,88.42,29.57,134.21-3.48,10.7-12.23,36.52-36.4,56.87-33.04,27.83-75.24,28.89-102.37,29.57-28.76,.72-32.42-4.55-63.69-2.27-34.04,2.48-40.42,4.72-63.69,11.37-47.77,13.65-84.64,5.87-102.37-36.4Z"/><path class="cls-2" d="M372.72,63.09c-9.11-16.13,6.86-43.39,27.3-54.6,20.79-11.4,52.9-9.86,61.42,6.82,8.26,16.17-8.26,41.47-27.3,52.32-20.28,11.56-52.21,11.75-61.42-4.55Z"/><path class="cls-2" d="M404.57,119.96c-5.97-13.71,7.28-33.21,22.75-40.95,17.39-8.7,43.66-5.56,50.05,9.1,5.97,13.71-7.28,33.21-22.75,40.95-17.39,8.7-43.66,5.56-50.05-9.1Z"/><path class="cls-2" d="M422.77,172.28c-4.47-12.39,8.99-25.62,22.75-29.57,13.58-3.9,29,.72,31.85,13.65,2.55,11.57-7.87,23.13-18.2,27.3-12.97,5.23-31.84,1.26-36.4-11.37Z"/><path class="cls-2" d="M415.95,213.23c-1.95-8.58,8.14-18.45,18.2-20.47,12.61-2.54,27.37,6.84,27.3,15.92-.07,8.24-12.33,15.34-22.75,15.92-8.43,.47-20.86-3.04-22.75-11.37Z"/><path class="cls-2" d="M395.47,251.9c-.76-8.41,10.39-16.66,20.47-18.2,9.72-1.48,23.14,2.56,25.02,11.37,1.85,8.7-8.32,18.27-18.2,20.47-11.81,2.64-26.47-4.52-27.3-13.65Z"/></g><g id="Layer_4"><g><path class="cls-1" d="M62.3,219.18c3.29,.06,6.77,.6,10.43,1.64l1.74-2.43c1.22-1.64,2.27-2.81,3.15-3.53,.88-.72,1.96-1.25,3.25-1.59,1.55-.41,2.86-.4,3.95,.04,1.08,.44,1.79,1.3,2.14,2.59,.14,.52,.19,1.09,.15,1.72l-.52,14.43c-.04,1.67-.32,2.92-.82,3.74-.51,.83-1.44,1.42-2.79,1.78-1.42,.38-2.78,.27-4.07-.32-1.3-.59-3.43-1.94-6.41-4.05-2.94-1.98-5.47-3.26-7.59-3.84-2.12-.58-4.15-.61-6.08-.09-1.42,.38-2.49,1.16-3.21,2.35-.72,1.19-.9,2.46-.54,3.82,.41,1.55,1.57,2.78,3.46,3.69,1.9,.91,4.76,1.93,8.58,3.06,3.88,1.11,7.14,2.18,9.76,3.21,2.62,1.03,5.02,2.54,7.2,4.51,2.18,1.98,3.68,4.51,4.5,7.61,.53,2,.74,4.09,.62,6.26-.18,5.57-2.14,10.28-5.88,14.14-3.74,3.86-8.58,6.57-14.51,8.15-4.45,1.18-8.33,1.66-11.63,1.43-3.31-.23-6.86-1.15-10.67-2.76l-2.71,3.83c-1.25,1.78-2.33,3.05-3.24,3.81-.9,.76-2,1.31-3.29,1.65-1.48,.39-2.75,.35-3.81-.13s-1.75-1.33-2.08-2.56c-.17-.64-.22-1.36-.15-2.13l.92-15.67c.07-1.81,.46-3.19,1.18-4.14,.71-.95,1.78-1.61,3.2-1.99,1.48-.39,2.96-.23,4.43,.48,1.47,.72,3.53,2.17,6.18,4.37,2.85,2.42,5.32,3.97,7.4,4.67,2.08,.69,4.35,.71,6.8,.06,1.74-.46,3.01-1.09,3.8-1.89,.79-.79,1.22-1.86,1.28-3.19,.04-.36-.02-.86-.19-1.5-.41-1.55-1.53-2.77-3.35-3.67-1.83-.9-4.53-1.84-8.1-2.82-3.82-1.13-6.97-2.21-9.45-3.24-2.48-1.03-4.8-2.54-6.95-4.53-2.15-1.98-3.65-4.59-4.51-7.81-.6-2.26-.83-4.58-.71-6.96,.17-4.81,2-9.12,5.47-12.95,3.47-3.82,7.92-6.45,13.34-7.89,3.61-.96,7.06-1.41,10.36-1.35Z"/><path class="cls-1" d="M132.73,216.09c.81,.34,1.34,.96,1.58,1.86,.07,.26,.12,.73,.17,1.41-.09,3.06-1.65,4.99-4.68,5.8l-5.61,1.49-.92,25.82c-.07,1.05,.04,2.1,.31,3.13,.31,1.16,.84,1.88,1.61,2.16,.76,.28,1.73,.27,2.89-.04,1.03-.27,2.29-.74,3.77-1.41,.72-.4,1.37-.68,1.95-.83,.45-.12,.83-.06,1.13,.17,.3,.23,.51,.57,.63,1.02,.41,1.27-.13,3.09-1.61,5.45-1.48,2.36-3.72,4.65-6.72,6.86-3,2.21-6.54,3.86-10.6,4.93-4.39,1.16-8.17,1.1-11.34-.2-3.18-1.3-5.22-3.69-6.15-7.17-.43-1.61-.58-3.23-.46-4.85l1.11-20.8c.03-1.18-.04-2.09-.21-2.74-.34-1.29-.94-2.3-1.79-3.04s-1.96-1.45-3.31-2.13c-1.21-.65-2.08-1.22-2.63-1.73-.55-.51-.84-1.21-.87-2.1,.03-.91,.41-1.7,1.13-2.37,.72-.67,1.98-1.25,3.79-1.73l5.42-1.44,4.48-7.71c1.56-2.69,3.12-4.69,4.67-6,1.55-1.31,3.75-2.34,6.58-3.09,4.06-1.08,6.51-.07,7.33,3.03,.26,.97,.37,1.91,.33,2.81l-.17,4.81,5.13-1.36c1.22-.32,2.25-.32,3.06,.02Z"/><path class="cls-1" d="M185.94,205.5c5.1,2.45,8.41,6.54,9.93,12.28,.51,1.94,.83,4.17,.95,6.69,.18,5.62-.89,10.85-3.19,15.71-2.3,4.86-5.6,9.01-9.9,12.46-4.3,3.45-9.29,5.93-14.96,7.44-8.97,2.38-16.07,2.34-21.31-.1-5.24-2.44-8.64-6.63-10.22-12.56-.53-2-.86-4.29-1-6.88-.11-5.35,1.04-10.44,3.46-15.26,2.42-4.82,5.84-8.97,10.26-12.46,4.42-3.49,9.48-5.98,15.15-7.49,8.77-2.33,15.71-2.27,20.81,.18Zm-22.16,13.28c-.88,2.82-1.46,7.86-1.74,15.11-.29,7.26-.07,12.24,.65,14.95,.38,1.42,.85,2.31,1.43,2.67,.58,.36,1.26,.44,2.03,.24,1.39-.23,2.48-1.76,3.29-4.6s1.36-8.09,1.67-15.77c.34-6.79,.13-11.6-.62-14.44-.36-1.35-.82-2.23-1.37-2.64-.56-.4-1.22-.5-2-.3-1.35,.36-2.47,1.95-3.34,4.77Z"/><path class="cls-1" d="M293.19,211.85c-.06,.29-.02,.7,.12,1.21,.12,.45,.33,.78,.62,.97,.29,.2,.63,.25,1.02,.14,.77-.21,1.34-.72,1.71-1.54,.37-.82,.65-1.26,.84-1.31,.32-.08,.64,.06,.94,.42,.3,.37,.53,.84,.69,1.42,.56,1.85,.43,3.84-.39,5.96-.82,2.12-2.32,4.07-4.51,5.85-2.18,1.79-5.02,3.14-8.5,4.07-4.26,1.13-7.9,1.04-10.94-.26-3.04-1.3-5.03-3.59-5.96-6.86-.63-2.38-.76-5.22-.39-8.49l1.63-15.34c.1-.92,.08-1.64-.05-2.16-.22-.84-.67-1.43-1.35-1.76-.68-.34-1.4-.41-2.18-.2-1.1,.29-2.1,1.07-3,2.35-.9,1.27-1.53,3.07-1.89,5.37l-.73,18.73c-.06,.29-.02,.7,.11,1.21,.12,.45,.33,.78,.62,.97,.29,.2,.63,.25,1.02,.14,.77-.21,1.35-.72,1.71-1.54,.37-.82,.65-1.26,.84-1.31,.32-.09,.64,.06,.94,.42,.3,.37,.53,.84,.69,1.42,.56,1.85,.43,3.84-.39,5.95-.82,2.12-2.32,4.07-4.51,5.85-2.18,1.79-5.02,3.14-8.5,4.07-4.26,1.13-7.9,1.04-10.94-.26-3.04-1.3-5.02-3.59-5.96-6.86-.63-2.39-.76-5.22-.39-8.49l1.63-15.34c.1-.92,.08-1.64-.05-2.16-.22-.84-.67-1.43-1.35-1.77-.68-.34-1.4-.41-2.18-.2-1.1,.29-2.1,1.06-3.01,2.3-.91,1.24-1.48,3-1.71,5.27l-.89,22.4c-.07,.78-.02,1.49,.15,2.13,.21,.77,.53,1.36,.98,1.76,.45,.4,1.03,.78,1.75,1.14,.55,.27,.97,.54,1.25,.81,.28,.27,.41,.65,.4,1.14-.04,.91-.49,1.68-1.35,2.33-.86,.64-2.33,1.24-4.39,1.79l-22.06,5.85c-1.68,.44-2.96,.49-3.85,.14-.89-.35-1.35-1-1.4-1.96,.05-.84,.55-1.7,1.49-2.57,.83-.77,1.48-1.6,1.93-2.48,.46-.88,.71-2.15,.75-3.82l1.2-30.24c.04-.36-.01-.83-.17-1.41-.19-.71-.48-1.22-.87-1.53-.39-.31-.99-.67-1.79-1.08-.78-.34-1.35-.68-1.71-1-.36-.32-.53-.83-.51-1.52,0-1.58,1.68-3.43,5.06-5.53,3.38-2.1,7.06-3.69,11.06-4.75,3.16-.84,5.89-.63,8.19,.62,2.3,1.25,3.82,3.41,4.56,6.46,1.67-4.38,3.78-7.67,6.34-9.86,2.56-2.2,5.55-3.75,8.96-4.65,3.74-.99,7.07-.72,10,.82,2.93,1.54,4.98,4.01,6.16,7.43,1.61-5.12,3.77-8.96,6.48-11.5,2.71-2.55,5.93-4.32,9.67-5.31,3.93-1.04,7.43-.69,10.48,1.05,3.05,1.75,5.08,4.52,6.09,8.33,.53,2,.73,4.05,.6,6.16l-.85,20.62Z"/><path class="cls-1" d="M356.06,159.56c3.71,2.54,6.32,6.64,7.82,12.32,.8,3.03,1.23,6.34,1.28,9.91,.19,8.51-1.81,15.55-6,21.11-4.19,5.56-9.76,9.27-16.73,11.11-4.45,1.18-8.57,1.27-12.35,.27l-.35,11.17c-.07,.78-.02,1.49,.15,2.13,.19,.71,.51,1.26,.96,1.66,.45,.4,.99,.76,1.63,1.07,.65,.38,1.1,.71,1.35,.99,.25,.28,.37,.66,.36,1.15-.04,.91-.49,1.67-1.36,2.28-.87,.61-2.31,1.18-4.31,1.71l-22.16,5.88c-1.68,.44-2.96,.49-3.85,.14-.89-.35-1.28-.99-1.18-1.91,0-.55,.11-1.03,.34-1.44,.24-.41,.61-.82,1.12-1.23,.8-.9,1.39-1.77,1.8-2.6,.4-.83,.63-2.05,.69-3.65l1.84-50.09c.04-.63,0-1.14-.09-1.53-.19-.71-.5-1.23-.93-1.56-.43-.33-1.03-.64-1.8-.92-.78-.34-1.35-.68-1.71-1-.36-.32-.53-.83-.51-1.52,0-1.59,1.68-3.43,5.06-5.53,3.38-2.1,7.06-3.69,11.06-4.75,2.84-.75,5.36-.66,7.58,.27,2.21,.93,3.78,2.62,4.71,5.07,2.9-6.77,7.09-10.89,12.57-12.34,4.97-1.32,9.3-.71,13.01,1.83Zm-17.45,17.36c-.36-1.36-.8-2.18-1.33-2.49-.53-.31-1.18-.36-1.96-.15-.58,.15-1.25,.62-2.01,1.41-.76,.79-1.42,1.95-1.98,3.48l-.92,27.38c.98,.57,2.02,.71,3.11,.42,1.74-.46,3.14-1.88,4.2-4.27,1.06-2.39,1.63-6.8,1.72-13.24,.03-6.15-.25-10.32-.83-12.52Z"/></g></g></svg>