<?xml version="1.0" encoding="UTF-8"?><svg id="Layer_4" xmlns="http://www.w3.org/2000/svg" viewBox="0 0 481.56 118.03"><defs><style>.cls-1{fill:#008382;}.cls-2{fill:#f4f3ea;stroke:#fff;stroke-miterlimit:10;stroke-width:.28px;}</style></defs><g><path class="cls-1" d="M66.2,1.85c4.34,1.23,8.74,3.17,13.21,5.82l3.15-2.6c2.19-1.73,3.99-2.92,5.41-3.56,1.41-.64,3.03-.96,4.86-.96,2.19,0,3.92,.48,5.2,1.44,1.28,.96,1.92,2.35,1.92,4.18,0,.73-.14,1.51-.41,2.33l-5.75,18.9c-.64,2.19-1.44,3.74-2.39,4.65-.96,.91-2.4,1.37-4.32,1.37s-3.77-.62-5.27-1.85c-1.51-1.23-3.86-3.77-7.05-7.6-3.2-3.65-6.09-6.23-8.69-7.73-2.6-1.51-5.27-2.26-8.01-2.26-2.01,0-3.7,.66-5.07,1.98-1.37,1.32-2.05,2.94-2.05,4.86,0,2.19,1.1,4.22,3.29,6.09,2.19,1.87,5.61,4.22,10.27,7.05,4.75,2.83,8.67,5.39,11.78,7.67,3.1,2.29,5.75,5.11,7.94,8.49s3.29,7.26,3.29,11.64c0,2.83-.46,5.66-1.37,8.49-2.19,7.31-6.44,12.85-12.73,16.64-6.3,3.79-13.65,5.68-22.04,5.68-6.3,0-11.59-.73-15.88-2.19-4.29-1.46-8.67-3.92-13.14-7.39l-4.93,4.11c-2.28,1.92-4.15,3.22-5.62,3.9-1.46,.68-3.1,1.03-4.93,1.03-2.1,0-3.77-.5-5-1.51-1.23-1-1.85-2.37-1.85-4.11,0-.91,.18-1.87,.55-2.87l6.71-20.4c.73-2.37,1.73-4.06,3.01-5.07,1.28-1,2.92-1.51,4.93-1.51s3.99,.73,5.68,2.19c1.69,1.46,3.9,4.11,6.64,7.94,2.92,4.2,5.63,7.12,8.15,8.76,2.51,1.64,5.5,2.46,8.97,2.46,2.46,0,4.36-.39,5.68-1.16,1.32-.77,2.26-2.03,2.8-3.77,.18-.46,.28-1.14,.28-2.05,0-2.19-1.05-4.2-3.15-6.02s-5.34-4.01-9.72-6.57c-4.66-2.83-8.44-5.36-11.36-7.6-2.92-2.24-5.46-5.04-7.6-8.42-2.15-3.38-3.22-7.35-3.22-11.91,0-3.19,.5-6.35,1.51-9.45,1.92-6.3,5.84-11.37,11.78-15.2C37.56,1.92,44.36,0,52.03,0c5.11,0,9.83,.62,14.17,1.85Z"/><path class="cls-1" d="M160.4,22.46c.96,.73,1.44,1.73,1.44,3.01,0,.36-.09,1.01-.27,1.92-1.19,4.02-3.93,6.02-8.21,6.02h-7.94l-10.27,33.82c-.46,1.37-.68,2.78-.68,4.25,0,1.64,.46,2.78,1.37,3.42,.91,.64,2.19,.96,3.83,.96,1.46,0,3.29-.18,5.48-.55,1.1-.27,2.05-.41,2.88-.41,.64,0,1.12,.21,1.44,.62,.32,.41,.48,.94,.48,1.57,.09,1.83-1.26,4.04-4.04,6.64s-6.55,4.84-11.3,6.71-10,2.81-15.74,2.81c-6.21,0-11.18-1.42-14.92-4.25-3.74-2.83-5.62-6.71-5.62-11.64,0-2.28,.36-4.47,1.1-6.57l8.76-27.11c.46-1.55,.69-2.78,.69-3.7,0-1.83-.43-3.38-1.3-4.66-.87-1.28-2.08-2.6-3.63-3.97-1.37-1.28-2.33-2.35-2.88-3.22-.55-.87-.68-1.89-.41-3.08,.36-1.19,1.14-2.1,2.33-2.74,1.19-.64,3.06-.96,5.61-.96h7.67l8.62-8.62c3.01-3.01,5.77-5.11,8.28-6.3,2.51-1.19,5.77-1.78,9.79-1.78,5.75,0,8.62,2.19,8.62,6.57,0,1.37-.18,2.65-.55,3.84l-1.92,6.3h7.26c1.73,0,3.08,.36,4.04,1.1Z"/><path class="cls-1" d="M243.32,46.84c0,2.74-.37,5.79-1.09,9.15-1.74,7.5-4.98,14.03-9.74,19.67-4.73,5.6-10.55,9.93-17.46,13.01-6.88,3.05-14.35,4.57-22.37,4.57-12.7,0-22.06-2.52-28.13-7.59-6.1-5.07-9.12-11.79-9.12-20.2,0-2.83,.37-5.98,1.09-9.46,1.74-7.1,5.04-13.44,9.93-18.95,4.89-5.51,10.86-9.8,17.96-12.88,7.06-3.05,14.63-4.57,22.65-4.57,12.42,0,21.57,2.52,27.45,7.53,5.88,5.01,8.84,11.58,8.84,19.73Z"/><path class="cls-1" d="M374.07,73.12c-.18,.37-.27,.91-.27,1.64,0,.64,.16,1.14,.48,1.51,.32,.36,.75,.55,1.3,.55,1.09,0,2.03-.48,2.81-1.44,.77-.96,1.3-1.44,1.57-1.44,.46,0,.82,.29,1.09,.89,.27,.6,.41,1.3,.41,2.12,.09,2.65-.77,5.23-2.6,7.74s-4.5,4.56-8.01,6.16-7.73,2.4-12.66,2.4c-6.03,0-10.82-1.39-14.38-4.18-3.56-2.78-5.39-6.5-5.48-11.16,0-3.38,.82-7.16,2.46-11.36l7.53-19.72c.46-1.19,.68-2.15,.68-2.88,0-1.19-.39-2.12-1.16-2.8-.78-.69-1.71-1.03-2.81-1.03-1.55,0-3.15,.68-4.79,2.05-1.64,1.37-3.1,3.51-4.38,6.43l-7.53,24.51c-.19,.37-.28,.91-.28,1.64,0,.64,.16,1.14,.48,1.51s.75,.55,1.3,.55c1.1,0,2.03-.48,2.81-1.44,.77-.96,1.3-1.44,1.57-1.44,.46,0,.82,.29,1.09,.89,.28,.6,.41,1.3,.41,2.12,.09,2.65-.78,5.23-2.6,7.74-1.83,2.51-4.5,4.56-8.01,6.16-3.52,1.6-7.74,2.4-12.67,2.4-6.02,0-10.82-1.39-14.38-4.18-3.56-2.78-5.39-6.5-5.48-11.16,0-3.38,.82-7.16,2.46-11.36l7.53-19.72c.46-1.19,.68-2.15,.68-2.88,0-1.19-.39-2.12-1.16-2.8-.77-.69-1.71-1.03-2.8-1.03-1.55,0-3.15,.66-4.79,1.98-1.64,1.32-3.01,3.45-4.11,6.37l-9.04,29.3c-.36,1.01-.55,1.96-.55,2.87,0,1.1,.23,1.99,.68,2.67s1.1,1.39,1.92,2.12c.64,.55,1.1,1.05,1.37,1.51,.27,.46,.32,1.01,.14,1.64-.37,1.19-1.23,2.05-2.6,2.6-1.37,.55-3.52,.82-6.44,.82h-31.22c-2.37,0-4.08-.39-5.13-1.16-1.05-.77-1.44-1.8-1.16-3.08,.36-1.09,1.32-2.05,2.87-2.87,1.37-.73,2.51-1.6,3.42-2.6,.91-1,1.69-2.6,2.33-4.79l12.19-39.57c.18-.46,.27-1.1,.27-1.92,0-1-.2-1.78-.61-2.33-.41-.55-1.08-1.23-1.99-2.05-.91-.73-1.55-1.37-1.91-1.91-.37-.55-.41-1.28-.14-2.19,.55-2.1,3.42-3.95,8.63-5.55,5.2-1.6,10.63-2.4,16.3-2.4,4.47,0,8.01,1.23,10.61,3.7,2.6,2.46,3.85,5.84,3.77,10.13,3.74-5.2,7.69-8.81,11.84-10.82,4.15-2.01,8.65-3.01,13.49-3.01,5.29,0,9.61,1.53,12.94,4.59,3.33,3.06,5.18,7.05,5.54,11.98,3.93-6.21,8.13-10.52,12.6-12.94,4.47-2.42,9.35-3.63,14.65-3.63,5.56,0,10.06,1.69,13.49,5.07,3.42,3.38,5.13,7.76,5.13,13.15,0,2.83-.46,5.61-1.37,8.35l-8.35,26.97Z"/><path class="cls-1" d="M475.53,26.02c4.01,4.66,6.03,11,6.03,19.03,0,4.29-.6,8.81-1.78,13.55-2.74,11.32-7.85,19.92-15.33,25.81-7.49,5.89-16.16,8.83-26.02,8.83-6.3,0-11.78-1.32-16.43-3.97l-4.38,14.65c-.36,1-.55,1.96-.55,2.87,0,1,.23,1.85,.68,2.53,.46,.68,1.05,1.34,1.78,1.98,.73,.73,1.21,1.32,1.44,1.78,.23,.46,.25,1,.07,1.64-.37,1.19-1.23,2.03-2.6,2.53-1.37,.5-3.47,.75-6.3,.75h-31.36c-2.37,0-4.08-.39-5.13-1.16-1.05-.78-1.35-1.76-.89-2.94,.18-.73,.5-1.32,.96-1.78,.46-.46,1.1-.87,1.92-1.23,1.37-.91,2.46-1.85,3.29-2.81,.82-.96,1.55-2.49,2.19-4.59l19.99-65.59c.28-.82,.41-1.51,.41-2.05,0-1-.23-1.8-.69-2.39s-1.14-1.21-2.05-1.85c-.91-.73-1.55-1.37-1.91-1.91-.37-.55-.41-1.28-.14-2.19,.55-2.1,3.42-3.95,8.62-5.55,5.2-1.6,10.63-2.4,16.3-2.4,4.01,0,7.32,1.01,9.93,3.01s4.08,4.79,4.45,8.35c6.21-7.94,13.19-11.91,20.95-11.91,7.03,0,12.55,2.33,16.57,6.98Zm-29.17,16.84c0-1.92-.3-3.17-.89-3.77-.59-.59-1.44-.89-2.53-.89-.82,0-1.87,.39-3.15,1.16-1.28,.78-2.56,2.08-3.83,3.9l-10.82,35.88c1.1,1.09,2.42,1.64,3.97,1.64,2.46,0,4.81-1.39,7.05-4.18,2.24-2.78,4.54-8.42,6.92-16.91,2.19-8.12,3.29-13.74,3.29-16.84Z"/></g><g><path class="cls-2" d="M178.35,82.3c-3.17-2.42-4.52-6.75-1.07-11.95,1.68-2.53,4.39-4.13,7.47-4.94,4.44-1.16,4.95-.91,6.51-2.13,2.59-2.02,3.84-5.07,2.74-12.53-.14-.97-.17-1.96-.02-2.93,.45-2.89,2.06-4.69,4.05-5.83s3.99-1.09,4.57-1.02c4.16,.51,10.14,6.69,11.36,12.48,.28,1.35,.93,4.64-.4,8.28-1.82,4.98-6.24,7.68-9.09,9.41-3.02,1.84-3.73,1.5-6.92,3.65-3.47,2.35-4.01,2.98-6.09,5.11-4.25,4.38-8.65,5.8-13.12,2.39Z"/><path class="cls-2" d="M204.4,37.37c-1.96-1.16-1.92-5.04-.43-7.48,1.52-2.49,5.03-4.29,6.96-3.03,1.87,1.22,1.66,4.92,.29,7.24-1.45,2.47-4.84,4.44-6.82,3.27Z"/><path class="cls-2" d="M211.27,41.48c-1.47-1.09-1.26-3.98-.08-5.75,1.32-1.99,4.31-3.26,5.88-2.09,1.47,1.09,1.26,3.98,.08,5.75-1.32,1.99-4.31,3.26-5.88,2.09Z"/><path class="cls-2" d="M216.41,45.94c-1.23-1.05-.61-3.28,.61-4.54,1.21-1.25,3.13-1.7,4.23-.49,.98,1.08,.58,2.94-.27,4.02-1.06,1.35-3.31,2.08-4.57,1.02Z"/><path class="cls-2" d="M218.19,50.72c-.73-.79-.26-2.46,.69-3.29,1.19-1.04,3.33-.95,3.88,.03,.5,.88-.37,2.39-1.45,3.09-.87,.57-2.41,.95-3.12,.18Z"/><path class="cls-2" d="M218.37,56.08c-.6-.85,.09-2.41,1.07-3.19,.94-.75,2.62-1.14,3.36-.32,.73,.81,.23,2.45-.69,3.29-1.1,1-3.1,1.14-3.74,.22Z"/></g></svg>